<svg width="213" height="32" viewBox="0 0 213 32" fill="none" xmlns="http://www.w3.org/2000/svg">
<path d="M39.7857 26.2929V6.34958H49.8702C52.6912 6.34958 56.1376 7.63916 55.9409 10.9921C55.741 13.755 52.2366 14.5384 50.0411 14.5384C53.4617 14.7673 56.5374 16.6179 56.5374 20.3802C56.5374 24.8228 53.8325 26.3058 49.8702 26.3058L39.7857 26.2929ZM42.9484 14.5255H49.4157C51.2662 14.5255 52.9201 13.5003 52.9201 11.7626C52.9201 9.93784 51.3532 9.18343 49.4157 9.18343H42.9484V14.5255ZM42.9484 17.2594V23.443H49.6155C51.8723 23.443 53.3199 22.7305 53.3199 20.2513C53.3199 18.1718 51.7079 17.2594 49.6155 17.2594H42.9484Z" fill="white"/>
<path d="M57.0617 19.3223C57.0617 14.3348 59.8537 11.9298 64.6412 11.9298C69.5126 11.9298 72.4464 14.4638 72.4464 19.3449V20.2863H60.0535C60.0535 22.6784 62.0492 24.0196 64.8121 24.0196C67.3461 24.0196 68.8839 23.1362 69.2837 21.5952H72.2143C71.534 25.148 68.913 26.6439 64.7541 26.6439C60.0535 26.6439 57.0617 24.0486 57.0617 19.3223ZM69.3708 18.2391C69.3708 15.9017 67.114 14.5928 64.6702 14.5928C62.2265 14.5928 60.0245 15.618 60.0245 18.21L69.3708 18.2391Z" fill="white"/>
<path d="M82.1044 12.3042H83.4424V15.0091H78.1454V21.0218C78.1454 22.3597 78.629 23.3301 79.996 23.3301H83.4424V26.2929H79.0546C76.4077 26.2929 75.0085 24.4972 75.0085 21.6472V15.0091H71.9909V12.3042H80.9148C76.8978 12.3042 74.9892 12.2462 74.9892 8.22914V6.34958H78.1229V9.79598C78.1164 11.7336 79.3963 12.3042 82.1044 12.3042Z" fill="white"/>
<path d="M93.4108 12.3042H94.7487V15.0091H89.4518V21.0218C89.4518 22.3597 89.9354 23.3301 91.3023 23.3301H94.7487V26.2929H90.3609C87.7141 26.2929 86.3149 24.4972 86.3149 21.6472V15.0091H83.2972V12.3042H92.205C88.188 12.3042 86.2794 12.2462 86.2794 8.22914V6.34958H89.4131V9.79598C89.4228 11.7336 90.7027 12.3042 93.4108 12.3042Z" fill="white"/>
<path d="M94.7346 19.3211C94.7346 14.3337 97.5265 11.9415 102.311 11.9415C107.182 11.9415 110.119 14.4755 110.119 19.3566V20.298H97.7264C97.7264 22.6902 99.7188 24.0313 102.482 24.0313C105.019 24.0313 106.557 23.148 106.957 21.6069H109.89C109.207 25.1468 106.586 26.6427 102.427 26.6427C97.7264 26.6427 94.7346 24.0474 94.7346 19.3211ZM107.037 18.2379C107.037 15.9005 104.78 14.5916 102.337 14.5916C99.8929 14.5916 97.6877 15.6168 97.6877 18.2089L107.037 18.2379Z" fill="white"/>
<path d="M120.782 15.0717H117.761C114.457 15.0717 114.17 17.2092 114.17 19.5852V26.2975H110.978V12.0799H114.131V17.6348C114.131 14.3012 116.24 12.0509 118.69 12.0509H120.773L120.782 15.0717Z" fill="white"/>
<path d="M122.621 26.2929V6.34958H132.709C135.53 6.34958 138.976 7.63916 138.777 10.9921C138.577 13.755 135.072 14.5384 132.88 14.5384C136.297 14.7673 139.376 16.6179 139.376 20.3802C139.376 24.8228 136.668 26.3058 132.709 26.3058L122.621 26.2929ZM125.784 14.5255H132.251C134.105 14.5255 135.756 13.5003 135.756 11.7626C135.756 9.93784 134.189 9.18343 132.251 9.18343H125.784V14.5255ZM125.784 17.2594V23.443H132.451C134.708 23.443 136.155 22.7305 136.155 20.2513C136.155 18.1718 134.543 17.2594 132.451 17.2594H125.784Z" fill="white"/>
<path d="M152.14 12.6607H155.132V25.8789H152.14V20.266C152.14 25.0536 148.436 26.3077 146.357 26.3077C144.535 26.3077 140.147 25.708 140.147 20.3821V12.6446H143.146V19.7373C143.146 22.1198 144.819 23.5415 147.269 23.5415C149.832 23.5415 152.14 22.1456 152.14 19.7534V12.6607Z" fill="white"/>
<path d="M169.412 12.0566H172.546V24.6784C172.546 29.1919 169.644 32 164.767 32H158.944V29.2081H164.812C167.833 29.2081 169.399 27.8121 169.399 24.6945V20.5743C168.471 25.8165 164.228 26.4387 162.813 26.4387C158.138 26.4387 156.004 23.276 156.004 19.1461C156.004 14.6326 158.309 11.6504 163.009 11.6504C164.776 11.6504 168.51 12.2952 169.422 17.5503L169.412 12.0566ZM164.057 14.5649C161.578 14.5649 159.128 16.0737 159.128 19.1783C159.128 22.1154 161.707 23.5952 164.057 23.5952C166.875 23.5952 169.383 22.1412 169.383 19.1783C169.383 16.0737 166.962 14.5649 164.057 14.5649Z" fill="white"/>
<path d="M176.353 21.7098C176.44 23.3895 178.548 23.8731 180.866 23.8731C182.775 23.8731 185.509 23.6764 185.509 22.1644C185.509 21.4809 183.913 20.8555 182.062 20.6266L178.045 19.8851C175.65 19.4595 173.371 18.4053 173.371 16.155C173.371 13.4759 176.849 12.0509 180.866 12.0509C184.938 12.0509 188.017 13.5339 188.017 16.5644H185.138C185.138 15.0556 183.258 14.3979 180.866 14.3979C179.07 14.3979 176.391 14.7687 176.391 16.0808C176.391 16.8771 177.504 17.4188 179.554 17.6928L184.371 18.5762C186.563 18.9469 188.388 20.085 188.388 22.0516C188.388 25.3561 185.138 26.2975 180.866 26.2975C176.675 26.2975 173.429 24.9564 173.429 21.7098H176.353Z" fill="white"/>
<path d="M15.7682 4.05992e-05C10.4318 -0.0119638 5.44102 2.63881 2.46295 7.06699C-0.348331 11.2356 2.50487 12.9346 8.51431 13.0893C0.967041 12.8959 -0.838372 16.1553 0.322251 20.311C2.00515 26.3366 7.55357 31.4336 14.4593 31.9881V8.85628C14.4593 6.51247 14.4593 4.14931 15.7714 2.84038V4.05992e-05H15.7682ZM11.5448 28.1387C7.3956 26.9007 3.68483 22.6935 3.68483 18.5088C3.68483 15.546 7.55358 14.4337 11.5448 14.4337V28.1387ZM11.5448 8.65317V11.8481C7.72122 11.8481 3.59456 10.8164 4.64235 8.80792C6.35897 5.73787 9.3208 3.56147 12.7635 2.84038C11.5255 4.07838 11.5448 5.59686 11.5448 8.65317Z" fill="#00DA92"/>
<path d="M15.772 5.58997e-05V2.84041C17.0906 4.14934 17.0906 6.51249 17.0906 8.85631V31.9978C23.9866 31.4433 29.5382 26.3462 31.2179 20.311C32.3818 16.1457 30.5731 12.8959 23.0259 13.0797C29.0353 12.9249 31.8917 11.2259 29.0804 7.05734C26.0987 2.63277 21.1074 -0.0140248 15.772 5.58997e-05ZM19.9921 14.4337C23.9995 14.4337 27.8521 15.546 27.8521 18.5088C27.8521 22.7 24.1414 26.8911 19.9921 28.1388V14.4337ZM18.7735 2.82752C22.2203 3.54952 25.1843 5.73137 26.8978 8.80795C27.9488 10.8165 23.8222 11.8481 19.9953 11.8481V8.6532C19.9921 5.59689 20.0147 4.07841 18.7767 2.84041L18.7735 2.82752Z" fill="#00DA92"/>
<path d="M189.057 12V3.27274H192.108C192.716 3.27274 193.217 3.37785 193.612 3.58808C194.007 3.79546 194.301 4.07529 194.494 4.42757C194.688 4.777 194.784 5.16478 194.784 5.59092C194.784 5.96592 194.717 6.27558 194.584 6.51989C194.453 6.76421 194.28 6.95739 194.064 7.09944C193.851 7.24149 193.619 7.3466 193.369 7.41478V7.50001C193.636 7.51705 193.905 7.6108 194.175 7.78126C194.445 7.95171 194.67 8.19603 194.852 8.51421C195.034 8.83239 195.125 9.2216 195.125 9.68183C195.125 10.1193 195.026 10.5128 194.827 10.8622C194.628 11.2117 194.314 11.4886 193.885 11.6932C193.456 11.8977 192.898 12 192.21 12H189.057ZM190.114 11.0625H192.21C192.901 11.0625 193.391 10.929 193.68 10.6619C193.973 10.3921 194.119 10.0653 194.119 9.68183C194.119 9.38637 194.044 9.11364 193.893 8.86364C193.743 8.6108 193.528 8.4091 193.25 8.25853C192.972 8.10512 192.642 8.02842 192.261 8.02842H190.114V11.0625ZM190.114 7.10796H192.074C192.392 7.10796 192.679 7.04546 192.935 6.92046C193.193 6.79546 193.398 6.61933 193.548 6.39205C193.702 6.16478 193.778 5.89774 193.778 5.59092C193.778 5.20739 193.645 4.88211 193.378 4.61507C193.111 4.34518 192.688 4.21024 192.108 4.21024H190.114V7.10796Z" fill="white"/>
<path d="M199.469 12.1364C198.839 12.1364 198.295 11.9972 197.837 11.7188C197.383 11.4375 197.032 11.0455 196.785 10.5426C196.54 10.0369 196.418 9.44887 196.418 8.77842C196.418 8.10796 196.54 7.51705 196.785 7.00569C197.032 6.49149 197.376 6.09092 197.816 5.80399C198.259 5.51421 198.776 5.36933 199.367 5.36933C199.708 5.36933 200.045 5.42614 200.377 5.53978C200.71 5.65342 201.012 5.83808 201.285 6.09376C201.558 6.3466 201.775 6.68183 201.937 7.09944C202.099 7.51705 202.18 8.03126 202.18 8.64205V9.06819H197.134V8.19887H201.157C201.157 7.82955 201.083 7.50001 200.935 7.21024C200.79 6.92046 200.583 6.69177 200.313 6.52416C200.046 6.35654 199.731 6.27274 199.367 6.27274C198.967 6.27274 198.62 6.37217 198.327 6.57103C198.038 6.76705 197.815 7.02274 197.658 7.33808C197.502 7.65342 197.424 7.99149 197.424 8.35228V8.93183C197.424 9.42614 197.509 9.84518 197.68 10.1889C197.853 10.5298 198.093 10.7898 198.4 10.9688C198.707 11.1449 199.063 11.233 199.469 11.233C199.734 11.233 199.972 11.196 200.185 11.1222C200.401 11.0455 200.587 10.9318 200.744 10.7813C200.9 10.6278 201.021 10.4375 201.106 10.2102L202.077 10.483C201.975 10.8125 201.803 11.1023 201.562 11.3523C201.32 11.5994 201.022 11.7926 200.667 11.9318C200.312 12.0682 199.913 12.1364 199.469 12.1364Z" fill="white"/>
<path d="M206.556 5.45455V6.30683H203.164V5.45455H206.556ZM204.153 3.88637H205.158V10.125C205.158 10.4091 205.2 10.6222 205.282 10.7642C205.367 10.9034 205.475 10.9972 205.606 11.0455C205.739 11.0909 205.88 11.1136 206.028 11.1136C206.139 11.1136 206.229 11.108 206.3 11.0966C206.371 11.0824 206.428 11.071 206.471 11.0625L206.675 11.9659C206.607 11.9915 206.512 12.0171 206.39 12.0426C206.268 12.071 206.113 12.0852 205.925 12.0852C205.641 12.0852 205.363 12.0242 205.09 11.902C204.82 11.7798 204.596 11.5938 204.417 11.3438C204.241 11.0938 204.153 10.7784 204.153 10.3977V3.88637Z" fill="white"/>
<path d="M209.995 12.1534C209.58 12.1534 209.204 12.0753 208.866 11.919C208.528 11.76 208.259 11.5313 208.06 11.233C207.862 10.9318 207.762 10.5682 207.762 10.1421C207.762 9.76705 207.836 9.46308 207.984 9.23012C208.131 8.99433 208.329 8.80967 208.576 8.67614C208.823 8.54262 209.096 8.44319 209.394 8.37785C209.695 8.30967 209.998 8.25569 210.302 8.21592C210.7 8.16478 211.022 8.12643 211.269 8.10086C211.519 8.07245 211.701 8.02558 211.815 7.96024C211.931 7.89489 211.989 7.78126 211.989 7.61933V7.58524C211.989 7.16478 211.874 6.83808 211.644 6.60512C211.417 6.37217 211.072 6.25569 210.609 6.25569C210.129 6.25569 209.752 6.3608 209.479 6.57103C209.207 6.78126 209.015 7.00569 208.904 7.24433L207.95 6.90342C208.12 6.50569 208.347 6.19603 208.631 5.97444C208.918 5.75001 209.231 5.59376 209.569 5.50569C209.91 5.41478 210.245 5.36933 210.575 5.36933C210.785 5.36933 211.026 5.39489 211.299 5.44603C211.575 5.49433 211.84 5.59518 212.096 5.74859C212.354 5.902 212.569 6.13353 212.739 6.44319C212.91 6.75285 212.995 7.16762 212.995 7.68751V12H211.989V11.1136H211.938C211.87 11.2557 211.756 11.4077 211.597 11.5696C211.438 11.7315 211.227 11.8693 210.962 11.983C210.698 12.0966 210.376 12.1534 209.995 12.1534ZM210.148 11.25C210.546 11.25 210.881 11.1719 211.154 11.0156C211.43 10.8594 211.637 10.6577 211.776 10.4105C211.918 10.1634 211.989 9.90342 211.989 9.63069V8.71024C211.947 8.76137 211.853 8.80825 211.708 8.85086C211.566 8.89063 211.401 8.92614 211.214 8.95739C211.029 8.9858 210.849 9.01137 210.673 9.0341C210.499 9.05399 210.359 9.07103 210.251 9.08524C209.989 9.11933 209.745 9.17472 209.518 9.25143C209.293 9.32529 209.112 9.43751 208.972 9.58808C208.836 9.7358 208.768 9.93751 208.768 10.1932C208.768 10.5426 208.897 10.8068 209.156 10.9858C209.417 11.1619 209.748 11.25 210.148 11.25Z" fill="white"/>
</svg>
