<svg width="30" height="30" viewBox="0 0 30 30" fill="none" xmlns="http://www.w3.org/2000/svg">
<path d="M14.998 3.80643e-05C10.2607 -0.0112168 5.8302 2.47405 3.18646 6.62575C0.690773 10.534 3.22367 12.127 8.55848 12.2721C1.85848 12.0907 0.255745 15.1466 1.28607 19.0428C2.78005 24.6922 7.7056 29.471 13.8361 29.9909V8.30333C13.8361 6.10585 13.8361 3.89024 15.0009 2.66304V3.80643e-05H14.998ZM11.2488 26.3819C7.56536 25.2212 4.27117 21.2766 4.27117 17.3532C4.27117 14.5753 7.7056 13.5325 11.2488 13.5325V26.3819ZM11.2488 8.1129V11.1084C7.85442 11.1084 4.19103 10.1411 5.12119 8.25799C6.6451 5.37962 9.27443 3.3391 12.3306 2.66304C11.2316 3.82374 11.2488 5.24742 11.2488 8.1129Z" fill="#00DA92"/>
<path d="M15.001 5.24096e-05V2.66307C16.1715 3.89027 16.1715 6.10588 16.1715 8.30335V30C22.2934 29.4801 27.2218 24.7013 28.7129 19.0429C29.7461 15.1376 28.1405 12.0907 21.4405 12.263C26.7753 12.1179 29.3111 10.525 26.8154 6.61671C24.1685 2.46839 19.7375 -0.0131491 15.001 5.24096e-05ZM18.7474 13.5326C22.3049 13.5326 25.725 14.5754 25.725 17.3532C25.725 21.2826 22.4308 25.2121 18.7474 26.3819V13.5326ZM17.6655 2.65098C20.7254 3.3279 23.3566 5.37352 24.8778 8.25801C25.8108 10.1411 22.1475 11.1084 18.7502 11.1084V8.11292C18.7474 5.24744 18.7674 3.82377 17.6684 2.66307L17.6655 2.65098Z" fill="#00DA92"/>
<rect x="1" y="20" width="28" height="10" rx="5" fill="white"/>
<path d="M7 27.8964V22H9.1668C9.59855 22 9.95464 22.071 10.2351 22.2131C10.5155 22.3532 10.7243 22.5422 10.8615 22.7802C10.9987 23.0163 11.0673 23.2783 11.0673 23.5662C11.0673 23.8196 11.0199 24.0288 10.9251 24.1939C10.8323 24.3589 10.7092 24.4894 10.5559 24.5854C10.4045 24.6814 10.2401 24.7524 10.0626 24.7985V24.856C10.2522 24.8676 10.4429 24.9309 10.6345 25.0461C10.8262 25.1612 10.9866 25.3263 11.1157 25.5413C11.2448 25.7562 11.3094 26.0192 11.3094 26.3301C11.3094 26.6257 11.2388 26.8916 11.0976 27.1276C10.9563 27.3637 10.7334 27.5509 10.4287 27.6891C10.1241 27.8273 9.72767 27.8964 9.23943 27.8964H7ZM7.75051 27.263H9.23943C9.72968 27.263 10.0777 27.1727 10.2835 26.9923C10.4913 26.81 10.5952 26.5893 10.5952 26.3301C10.5952 26.1305 10.5417 25.9463 10.4348 25.7774C10.3279 25.6065 10.1756 25.4702 9.97784 25.3685C9.78012 25.2649 9.54609 25.2131 9.27575 25.2131H7.75051V27.263ZM7.75051 24.5912H9.14259C9.36855 24.5912 9.57232 24.5489 9.75389 24.4645C9.93749 24.38 10.0827 24.261 10.1897 24.1075C10.2986 23.9539 10.3531 23.7735 10.3531 23.5662C10.3531 23.3071 10.2583 23.0873 10.0686 22.9069C9.87898 22.7246 9.57837 22.6334 9.1668 22.6334H7.75051V24.5912Z" fill="#1C2221"/>
<path d="M14.3947 27.9885C13.9468 27.9885 13.5604 27.8944 13.2356 27.7063C12.9128 27.5163 12.6636 27.2514 12.4881 26.9117C12.3146 26.5701 12.2279 26.1727 12.2279 25.7198C12.2279 25.2668 12.3146 24.8676 12.4881 24.5221C12.6636 24.1747 12.9078 23.904 13.2205 23.7102C13.5352 23.5144 13.9024 23.4165 14.322 23.4165C14.5641 23.4165 14.8032 23.4549 15.0393 23.5317C15.2753 23.6084 15.4902 23.7332 15.6838 23.906C15.8775 24.0768 16.0319 24.3033 16.1469 24.5854C16.2619 24.8676 16.3194 25.215 16.3194 25.6276V25.9155H12.7363V25.3282H15.5931C15.5931 25.0787 15.5406 24.856 15.4357 24.6603C15.3328 24.4645 15.1855 24.31 14.9939 24.1967C14.8042 24.0835 14.5803 24.0269 14.322 24.0269C14.0376 24.0269 13.7914 24.094 13.5836 24.2284C13.3778 24.3608 13.2195 24.5336 13.1085 24.7466C12.9975 24.9597 12.9421 25.1881 12.9421 25.4319V25.8234C12.9421 26.1574 13.0026 26.4405 13.1236 26.6727C13.2467 26.9031 13.4172 27.0787 13.6351 27.1996C13.853 27.3186 14.1062 27.3781 14.3947 27.3781C14.5823 27.3781 14.7518 27.3532 14.9031 27.3033C15.0564 27.2514 15.1885 27.1747 15.2995 27.0729C15.4105 26.9693 15.4962 26.8407 15.5567 26.6871L16.2467 26.8714C16.1741 27.094 16.052 27.2898 15.8806 27.4587C15.7091 27.6257 15.4972 27.7562 15.245 27.8503C14.9928 27.9424 14.7094 27.9885 14.3947 27.9885Z" fill="#1C2221"/>
<path d="M19.4273 23.4741V24.0499H17.0184V23.4741H19.4273ZM17.7205 22.4146H18.4347V26.6296C18.4347 26.8215 18.464 26.9655 18.5225 27.0614C18.583 27.1555 18.6597 27.2188 18.7525 27.2514C18.8473 27.2821 18.9472 27.2975 19.0521 27.2975C19.1308 27.2975 19.1953 27.2937 19.2458 27.286C19.2962 27.2764 19.3365 27.2687 19.3668 27.263L19.5121 27.8733C19.4636 27.8906 19.3961 27.9079 19.3093 27.9251C19.2225 27.9443 19.1126 27.9539 18.9794 27.9539C18.7777 27.9539 18.58 27.9127 18.3863 27.8301C18.1946 27.7476 18.0352 27.6219 17.9081 27.453C17.7831 27.2841 17.7205 27.071 17.7205 26.8138V22.4146Z" fill="#1C2221"/>
<path d="M21.8695 28C21.575 28 21.3076 27.9472 21.0676 27.8417C20.8275 27.7342 20.6368 27.5797 20.4956 27.3781C20.3544 27.1747 20.2838 26.929 20.2838 26.6411C20.2838 26.3877 20.3362 26.1823 20.4411 26.025C20.546 25.8656 20.6862 25.7409 20.8618 25.6507C21.0373 25.5605 21.231 25.4933 21.4428 25.4491C21.6567 25.4031 21.8715 25.3666 22.0874 25.3397C22.3699 25.3052 22.5988 25.2793 22.7744 25.262C22.9519 25.2428 23.081 25.2111 23.1617 25.167C23.2444 25.1228 23.2858 25.0461 23.2858 24.9367V24.9136C23.2858 24.6296 23.2041 24.4088 23.0407 24.2514C22.8793 24.094 22.6341 24.0154 22.3053 24.0154C21.9643 24.0154 21.697 24.0864 21.5033 24.2284C21.3097 24.3704 21.1735 24.5221 21.0948 24.6833L20.4169 24.453C20.538 24.1843 20.6994 23.975 20.9011 23.8253C21.1049 23.6737 21.3268 23.5681 21.5669 23.5086C21.809 23.4472 22.0471 23.4165 22.2811 23.4165C22.4304 23.4165 22.6019 23.4338 22.7956 23.4683C22.9912 23.501 23.1799 23.5691 23.3615 23.6727C23.5451 23.7764 23.6974 23.9328 23.8184 24.142C23.9395 24.3512 24 24.6315 24 24.9827V27.8964H23.2858V27.2975H23.2495C23.2011 27.3935 23.1204 27.4962 23.0074 27.6056C22.8944 27.715 22.7441 27.8081 22.5565 27.8848C22.3688 27.9616 22.1399 28 21.8695 28ZM21.9785 27.3896C22.2609 27.3896 22.499 27.3369 22.6927 27.2313C22.8884 27.1257 23.0356 26.9894 23.1345 26.8225C23.2354 26.6555 23.2858 26.4798 23.2858 26.2956V25.6737C23.2555 25.7083 23.189 25.7399 23.0861 25.7687C22.9852 25.7956 22.8682 25.8196 22.735 25.8407C22.6039 25.8599 22.4758 25.8772 22.3507 25.8925C22.2276 25.906 22.1278 25.9175 22.0511 25.9271C21.8655 25.9501 21.692 25.9875 21.5306 26.0393C21.3712 26.0893 21.2421 26.1651 21.1432 26.2668C21.0464 26.3666 20.998 26.5029 20.998 26.6756C20.998 26.9117 21.0897 27.0902 21.2733 27.2111C21.459 27.3301 21.694 27.3896 21.9785 27.3896Z" fill="#1C2221"/>
</svg>
